<?xml version="1.0" standalone="no"?>
<!DOCTYPE svg PUBLIC "-//W3C//DTD SVG 20010904//EN"
 "http://www.w3.org/TR/2001/REC-SVG-20010904/DTD/svg10.dtd">
<svg version="1.0" xmlns="http://www.w3.org/2000/svg"
 width="93.000000pt" height="93.000000pt" viewBox="0 0 93.000000 93.000000"
 preserveAspectRatio="xMidYMid meet">
<metadata>
Created by potrace 1.11, written by Peter Selinger 2001-2013
</metadata>
<g transform="translate(0.000000,93.000000) scale(0.100000,-0.100000)"
fill="#000000" stroke="none">
<path d="M652 888 c-7 -7 -12 -16 -12 -20 0 -10 46 -31 72 -33 15 -2 78 -25
78 -29 0 -1 4 -15 9 -32 14 -49 1 -57 -44 -27 -143 97 -352 79 -485 -43 l-26
-24 -48 25 c-27 14 -58 25 -68 25 -10 0 -18 5 -18 10 0 11 42 4 72 -11 11 -6
22 -4 32 7 26 26 19 31 -42 28 -33 -1 -80 5 -106 13 -26 9 -49 13 -53 10 -3
-4 16 -29 43 -57 27 -28 61 -71 75 -96 29 -50 35 -49 40 11 4 38 2 41 -31 53
l-35 13 33 -6 c19 -2 47 -14 63 -25 l29 -21 -25 -40 c-38 -59 -59 -152 -52
-231 11 -130 98 -253 222 -313 54 -27 70 -30 160 -30 92 0 105 3 168 32 220
105 292 367 156 569 -19 28 -25 45 -18 55 15 23 10 82 -10 119 -32 61 -143
104 -179 68z"/>
</g>
</svg>
