<?xml version="1.0" encoding="UTF-8" standalone="no"?>
<!-- Created with Inkscape (http://www.inkscape.org/) -->

<svg
   xmlns:dc="http://purl.org/dc/elements/1.1/"
   xmlns:cc="http://creativecommons.org/ns#"
   xmlns:rdf="http://www.w3.org/1999/02/22-rdf-syntax-ns#"
   xmlns:svg="http://www.w3.org/2000/svg"
   xmlns="http://www.w3.org/2000/svg"
   xmlns:sodipodi="http://sodipodi.sourceforge.net/DTD/sodipodi-0.dtd"
   xmlns:inkscape="http://www.inkscape.org/namespaces/inkscape"
   width="332.58133mm"
   height="52.774071mm"
   viewBox="0 0 332.58133 52.774071"
   version="1.1"
   id="svg4649"
   inkscape:version="0.92.2 (5c3e80d, 2017-08-06)"
   sodipodi:docname="footer.svg">
  <defs
     id="defs4643">
    <clipPath
       clipPathUnits="userSpaceOnUse"
       id="clipPath325786">
      <rect
         transform="scale(1,-1)"
         y="4.459105"
         x="-2.4270835"
         height="4.9263105"
         width="13.093754"
         id="rect325788"
         style="opacity:1;fill:#0093d9;fill-opacity:1;stroke:none;stroke-width:0.04166688;stroke-linecap:square;stroke-linejoin:miter;stroke-miterlimit:4;stroke-dasharray:none;stroke-dashoffset:0;stroke-opacity:1" />
    </clipPath>
  </defs>
  <sodipodi:namedview
     id="base"
     pagecolor="#ffffff"
     bordercolor="#666666"
     borderopacity="1.0"
     inkscape:pageopacity="0.0"
     inkscape:pageshadow="2"
     inkscape:zoom="0.35"
     inkscape:cx="728.50016"
     inkscape:cy="34.016234"
     inkscape:document-units="mm"
     inkscape:current-layer="layer1"
     showgrid="false"
     inkscape:window-width="2560"
     inkscape:window-height="1376"
     inkscape:window-x="1920"
     inkscape:window-y="27"
     inkscape:window-maximized="1" />
  <metadata
     id="metadata4646">
    <rdf:RDF>
      <cc:Work
         rdf:about="">
        <dc:format>image/svg+xml</dc:format>
        <dc:type
           rdf:resource="http://purl.org/dc/dcmitype/StillImage" />
        <dc:title></dc:title>
      </cc:Work>
    </rdf:RDF>
  </metadata>
  <g
     inkscape:label="Layer 1"
     inkscape:groupmode="layer"
     id="layer1"
     transform="translate(86.915667,-105.05939)">
    <g
       transform="matrix(25.399999,0,0,25.399999,-25.267749,287.62846)"
       style="opacity:1"
       clip-path="url(#clipPath325786)"
       id="g328560">
      <path
         style="fill:#f5f5f5;fill-opacity:0.40975611;stroke-width:0.01041667"
         d="m 6.1929146,-7.187683 c -0.014546,-3.302e-4 -0.029071,4.198e-4 -0.043294,0.00218 -0.2113294,0.025954 -0.3319009,0.1938368 -0.4939983,0.3081258 -0.128941,0.090845 -0.3040862,0.1350415 -0.4604901,0.1331991 -0.1144562,-0.00145 -0.3665798,-0.072926 -0.3229574,-0.2344361 0.022356,-0.082472 0.086428,-0.038759 0.088521,0.025126 0.078872,-0.022442 0.069136,-0.1142186 0.021159,-0.1649577 -0.056182,-0.059448 -0.1435701,-0.077178 -0.222107,-0.065877 -0.2114967,0.030391 -0.3286357,0.2008637 -0.4939984,0.3127239 -0.133881,0.090594 -0.3092031,0.1292634 -0.4688722,0.127421 -0.1018133,-0.00129 -0.399301,-0.1083229 -0.2952272,-0.2590332 0.044962,-0.065059 0.076939,0.01329 0.069153,0.058085 0.091264,-0.031147 0.079288,-0.131609 0.01532,-0.1868695 -0.068824,-0.05936 -0.1649396,-0.064732 -0.249756,-0.044718 -0.1855076,0.043621 -0.2959446,0.195096 -0.4437665,0.2993367 -0.1175874,0.082891 -0.2758587,0.1270872 -0.4186402,0.1331991 -0.1115257,0 -0.2354265,-0.017162 -0.3176474,-0.1008097 -0.036254,-0.036838 -0.067834,-0.099049 -0.040873,-0.1502075 0.036422,-0.069246 0.080624,-0.00795 0.082214,0.041707 0.078872,-0.022442 0.069156,-0.1141984 0.021179,-0.1649374 -0.056182,-0.059448 -0.14357,-0.0772 -0.2221069,-0.065898 -0.2114968,0.030391 -0.3286357,0.2008638 -0.4939984,0.3127239 -0.1338811,0.090594 -0.3092233,0.1292634 -0.4688925,0.127421 -0.10181334,-0.00129 -0.39928078,-0.1083229 -0.29520698,-0.2590332 0.044961,-0.065059 0.076939,0.01331 0.069153,0.058105 0.080714,-0.027546 0.084214,-0.1155474 0.029541,-0.1733196 -0.043742,-0.046257 -0.10741434,-0.067806 -0.17045094,-0.069234 h -2.08e-5 c -0.014547,-3.303e-4 -0.029051,3.979e-4 -0.043274,0.00216 -0.21132934,0.025954 -0.33190098,0.1938368 -0.49399842,0.3081258 -0.12894099865,0.090845 -0.30410657,0.1350415 -0.46051037,0.1331991 -0.11445618,-0.00145 -0.36655939,-0.072926 -0.32293708,-0.2344361 0.0223557,-0.082472 0.0864077,-0.038759 0.088501,0.025126 0.0788717,-0.022442 0.0691556,-0.1142186 0.0211792,-0.1649577 -0.0561817,-0.059448 -0.14359047,-0.077178 -0.22212737,-0.065877 -0.21149684,0.030391 -0.32863564,0.2008434 -0.49399834,0.3127036 -0.133881,0.090594 -0.309203,0.1292837 -0.4688721,0.1274413 -0.1018133,-0.00129 -0.3993011,-0.1083229 -0.2952272,-0.2590332 0.044962,-0.065059 0.076959,0.01329 0.069173,0.058085 0.091264,-0.031147 0.079288,-0.131609 0.01532,-0.1868695 -0.068824,-0.05936 -0.1649395,-0.064732 -0.249756,-0.044718 -0.1855076,0.043621 -0.2959446,0.195096 -0.4437664,0.2993367 -0.1175869,0.082891 -0.2758582,0.1270872 -0.4186397,0.1331991 v 1.2383026 h 5.5260434 5.5156268 0.010417 5.5156272 5.526023 v -1.2383026 c -0.111525,0 -0.235426,-0.017162 -0.317647,-0.1008097 -0.03625,-0.036838 -0.06782,-0.099049 -0.04087,-0.1502075 0.03642,-0.069246 0.08062,-0.00795 0.08221,0.041707 0.07887,-0.022442 0.06916,-0.1141984 0.02118,-0.1649374 -0.05618,-0.059448 -0.14359,-0.0772 -0.222129,-0.065898 -0.211496,0.030391 -0.328615,0.2008638 -0.493977,0.3127239 -0.133881,0.090594 -0.309225,0.1292634 -0.468893,0.127421 -0.101813,-0.00129 -0.399281,-0.1083229 -0.295207,-0.2590332 0.04496,-0.065059 0.07693,0.01331 0.06915,0.058105 0.08071,-0.027546 0.08422,-0.1155474 0.02954,-0.1733196 -0.05384,-0.056932 -0.137889,-0.07645 -0.213746,-0.067078 -0.211329,0.025954 -0.3319,0.1938368 -0.493998,0.3081258 -0.128941,0.090845 -0.304087,0.1350415 -0.46049,0.1331991 -0.114456,-0.00145 -0.36658,-0.072926 -0.322957,-0.2344361 0.02236,-0.082472 0.08641,-0.038759 0.0885,0.025126 0.07887,-0.022442 0.06915,-0.1142186 0.02118,-0.1649577 -0.05618,-0.059448 -0.143572,-0.077178 -0.222107,-0.065877 -0.211497,0.030391 -0.328636,0.2008637 -0.493999,0.3127239 -0.13388,0.090594 -0.309203,0.1292634 -0.468873,0.127421 -0.101812,-0.00129 -0.3993,-0.1083229 -0.295227,-0.2590332 0.04496,-0.065059 0.07693,0.01329 0.06915,0.058085 0.09126,-0.031147 0.07929,-0.131609 0.01532,-0.1868695 -0.06882,-0.05936 -0.164938,-0.064732 -0.249755,-0.044718 -0.185508,0.043621 -0.295946,0.195096 -0.443767,0.2993367 -0.117588,0.082891 -0.275859,0.1270872 -0.418641,0.1331991 -0.111525,0 -0.235426,-0.017162 -0.317647,-0.1008097 -0.03625,-0.036838 -0.06783,-0.099049 -0.04087,-0.1502075 0.03642,-0.069246 0.08062,-0.00795 0.08222,0.041707 0.07887,-0.022442 0.06915,-0.1141984 0.02118,-0.1649374 -0.05618,-0.059448 -0.143571,-0.0772 -0.222107,-0.065898 -0.211496,0.030391 -0.328637,0.2008638 -0.493998,0.3127239 -0.133882,0.090594 -0.309204,0.1292634 -0.468873,0.127421 -0.101813,-0.00129 -0.399302,-0.1083229 -0.295228,-0.2590332 0.04496,-0.065059 0.07693,0.01331 0.06915,0.058105 0.08071,-0.027546 0.08423,-0.1155474 0.02956,-0.1733196 -0.04374,-0.046257 -0.107434,-0.067806 -0.170471,-0.069234 -0.01455,-3.303e-4 -0.02906,3.979e-4 -0.04329,0.00216 -0.211329,0.025954 -0.33188,0.1938368 -0.493977,0.3081258 -0.128942,0.090845 -0.304106,0.1350415 -0.46051,0.1331991 -0.114457,-0.00145 -0.366561,-0.072926 -0.322938,-0.2344361 0.02236,-0.082472 0.08641,-0.038759 0.0885,0.025126 0.07887,-0.022442 0.06915,-0.1142186 0.02118,-0.1649577 -0.05618,-0.059448 -0.14359,-0.077178 -0.222127,-0.065877 -0.211496,0.030391 -0.3286363,0.2008434 -0.4939987,0.3127036 -0.133881,0.090594 -0.3092033,0.1292837 -0.4688726,0.1274413 -0.101813,-0.00129 -0.3993004,-0.1083229 -0.2952273,-0.2590332 0.04496,-0.065059 0.07695,0.01329 0.06917,0.058085 0.09126,-0.031147 0.07929,-0.131609 0.01532,-0.1868695 -0.06882,-0.05936 -0.1649596,-0.064732 -0.2497763,-0.044718 -0.1855073,0.043621 -0.2959251,0.195096 -0.443746,0.2993367 -0.1168375,0.082363 -0.2738282,0.1264809 -0.4158939,0.1330364 -0.1095198,-7.854e-4 -0.2296198,-0.018895 -0.3099771,-0.100647 -0.036251,-0.036838 -0.067832,-0.099049 -0.040874,-0.1502075 0.036421,-0.069246 0.080623,-0.00795 0.082215,0.041707 0.078868,-0.022442 0.069157,-0.1141984 0.021179,-0.1649374 -0.056184,-0.059448 -0.1435699,-0.0772 -0.2221074,-0.065898 -0.2114963,0.030391 -0.3286353,0.2008638 -0.4939979,0.3127239 -0.1338811,0.090594 -0.3092038,0.1292634 -0.4688722,0.127421 -0.1018132,-0.00129 -0.3993011,-0.1083229 -0.2952272,-0.2590332 0.044962,-0.065059 0.076939,0.01331 0.069153,0.058105 0.080714,-0.027546 0.084235,-0.1155474 0.029561,-0.1733196 -0.043743,-0.046257 -0.1074364,-0.067823 -0.1704713,-0.069255 z"
         id="path328556"
         inkscape:connector-curvature="0"
         sodipodi:nodetypes="ccccccccccccccccccccccccccccccccccccccccccccccccccccccccccccccccccccccccccccccccccccccccccccccccccccccccccccccccc" />
      <path
         sodipodi:nodetypes="ccccccccccccccccccccccccccccccccccccccccccccccccccccccccccccccccccccccccccccccccccccccccccccccccccccccccccccccccc"
         inkscape:connector-curvature="0"
         id="path328558"
         d="m 6.8179145,-6.7293498 c -0.014546,-3.302e-4 -0.029071,4.198e-4 -0.043294,0.00218 -0.2113294,0.025954 -0.3319009,0.1938368 -0.4939983,0.3081258 -0.128941,0.090845 -0.3040862,0.1350415 -0.4604901,0.1331991 -0.1144562,-0.00145 -0.3665798,-0.072926 -0.3229574,-0.2344361 0.022356,-0.082472 0.086428,-0.038759 0.088521,0.025126 0.078872,-0.022442 0.069136,-0.1142186 0.021159,-0.1649577 -0.056182,-0.059448 -0.1435701,-0.077178 -0.222107,-0.065877 -0.2114967,0.030391 -0.3286357,0.2008637 -0.4939984,0.3127239 -0.133881,0.090594 -0.3092031,0.1292634 -0.4688722,0.127421 -0.1018133,-0.00129 -0.399301,-0.1083229 -0.2952272,-0.2590332 0.044962,-0.065059 0.076939,0.01329 0.069153,0.058085 0.091264,-0.031147 0.079288,-0.131609 0.01532,-0.1868695 -0.068824,-0.05936 -0.1649396,-0.064732 -0.249756,-0.044718 -0.1855076,0.043621 -0.2959446,0.195096 -0.4437665,0.2993367 -0.1175874,0.082891 -0.2758587,0.1270872 -0.4186402,0.1331991 -0.1115257,0 -0.2354265,-0.017162 -0.3176474,-0.1008097 -0.036254,-0.036838 -0.067834,-0.099049 -0.040873,-0.1502075 0.036422,-0.069246 0.080624,-0.00795 0.082214,0.041707 0.078872,-0.022442 0.069156,-0.1141984 0.021179,-0.1649374 -0.056182,-0.059448 -0.14357,-0.0772 -0.2221069,-0.065898 -0.2114968,0.030391 -0.3286357,0.2008638 -0.4939984,0.3127239 -0.1338811,0.090594 -0.3092233,0.1292634 -0.4688925,0.127421 -0.1018133,-0.00129 -0.3992807,-0.1083229 -0.2952069,-0.2590332 0.044961,-0.065059 0.076939,0.01331 0.069153,0.058105 0.080714,-0.027546 0.084214,-0.1155474 0.029541,-0.1733196 -0.043742,-0.046257 -0.1074143,-0.067806 -0.1704509,-0.069234 h -2.08e-5 c -0.014547,-3.303e-4 -0.029051,3.979e-4 -0.043274,0.00216 -0.2113293,0.025954 -0.33190095,0.1938368 -0.4939984,0.3081258 -0.12894097,0.090845 -0.30410655,0.1350415 -0.46051035,0.1331991 -0.11445618,-0.00145 -0.36655939,-0.072926 -0.32293708,-0.2344361 0.02235573,-0.082472 0.08640773,-0.038759 0.08850096,0.025126 0.07887169,-0.022442 0.06915565,-0.1142186 0.02117918,-0.1649577 -0.05618169,-0.059448 -0.14359047,-0.077178 -0.22212737,-0.065877 -0.21149684,0.030391 -0.32863562,0.2008434 -0.49399828,0.3127036 -0.13388108,0.090594 -0.30920312,0.1292837 -0.46887226,0.1274413 -0.1018133,-0.00129 -0.3993011,-0.1083229 -0.2952272,-0.2590332 0.044962,-0.065059 0.076959,0.01329 0.069173,0.058085 0.091264,-0.031147 0.079288,-0.131609 0.01532,-0.1868695 -0.068824,-0.05936 -0.1649395,-0.064732 -0.249756,-0.044718 -0.1855076,0.043621 -0.2959446,0.195096 -0.4437664,0.2993367 -0.1175869,0.082891 -0.2758582,0.1270872 -0.4186397,0.1331991 v 1.1758026 h 5.5260434 5.5156268 0.010417 5.5156263 5.526023 v -1.1758026 c -0.111525,0 -0.235426,-0.017162 -0.317647,-0.1008097 -0.03625,-0.036838 -0.06782,-0.099049 -0.04087,-0.1502075 0.03642,-0.069246 0.08062,-0.00795 0.08221,0.041707 0.07887,-0.022442 0.06916,-0.1141984 0.02118,-0.1649374 -0.05618,-0.059448 -0.14359,-0.0772 -0.222129,-0.065898 -0.211496,0.030391 -0.328615,0.2008638 -0.493977,0.3127239 -0.133881,0.090594 -0.309225,0.1292634 -0.468893,0.127421 -0.101813,-0.00129 -0.399281,-0.1083229 -0.295207,-0.2590332 0.04496,-0.065059 0.07693,0.01331 0.06915,0.058105 0.08071,-0.027546 0.08422,-0.1155474 0.02954,-0.1733196 -0.05384,-0.056932 -0.137889,-0.07645 -0.213746,-0.067078 -0.211329,0.025954 -0.3319,0.1938368 -0.493998,0.3081258 -0.128941,0.090845 -0.304087,0.1350415 -0.46049,0.1331991 -0.114456,-0.00145 -0.36658,-0.072926 -0.322957,-0.2344361 0.02236,-0.082472 0.08641,-0.038759 0.0885,0.025126 0.07887,-0.022442 0.06915,-0.1142186 0.02118,-0.1649577 -0.05618,-0.059448 -0.143572,-0.077178 -0.222107,-0.065877 -0.211497,0.030391 -0.328636,0.2008637 -0.493999,0.3127239 -0.13388,0.090594 -0.309203,0.1292634 -0.468873,0.127421 -0.101812,-0.00129 -0.3993,-0.1083229 -0.295227,-0.2590332 0.04496,-0.065059 0.07693,0.01329 0.06915,0.058085 0.09126,-0.031147 0.07929,-0.131609 0.01532,-0.1868695 -0.06882,-0.05936 -0.164938,-0.064732 -0.249755,-0.044718 -0.185508,0.043621 -0.295946,0.195096 -0.443767,0.2993367 -0.117588,0.082891 -0.275859,0.1270872 -0.418641,0.1331991 -0.111525,0 -0.235426,-0.017162 -0.317647,-0.1008097 -0.03625,-0.036838 -0.06783,-0.099049 -0.04087,-0.1502075 0.03642,-0.069246 0.08062,-0.00795 0.08222,0.041707 0.07887,-0.022442 0.06915,-0.1141984 0.02118,-0.1649374 -0.05618,-0.059448 -0.143571,-0.0772 -0.222107,-0.065898 -0.211496,0.030391 -0.328637,0.2008638 -0.493998,0.3127239 -0.133882,0.090594 -0.309204,0.1292634 -0.468873,0.127421 -0.101813,-0.00129 -0.399302,-0.1083229 -0.295228,-0.2590332 0.04496,-0.065059 0.07693,0.01331 0.06915,0.058105 0.08071,-0.027546 0.08423,-0.1155474 0.02956,-0.1733196 -0.04374,-0.046257 -0.107434,-0.067806 -0.170471,-0.069234 -0.01455,-3.303e-4 -0.02906,3.979e-4 -0.04329,0.00216 -0.211329,0.025954 -0.33188,0.1938368 -0.493977,0.3081258 -0.128942,0.090845 -0.304106,0.1350415 -0.46051,0.1331991 -0.114457,-0.00145 -0.366561,-0.072926 -0.322938,-0.2344361 0.02236,-0.082472 0.08641,-0.038759 0.0885,0.025126 0.07887,-0.022442 0.06915,-0.1142186 0.02118,-0.1649577 -0.05618,-0.059448 -0.14359,-0.077178 -0.222127,-0.065877 -0.211496,0.030391 -0.328636,0.2008434 -0.493998,0.3127036 -0.133881,0.090594 -0.309203,0.1292837 -0.4688727,0.1274413 -0.1018125,-0.00129 -0.3993001,-0.1083229 -0.2952272,-0.2590332 0.044961,-0.065059 0.076954,0.01329 0.069174,0.058085 0.091259,-0.031147 0.07929,-0.131609 0.01532,-0.1868695 -0.06882,-0.05936 -0.1649594,-0.064732 -0.2497761,-0.044718 -0.1855073,0.043621 -0.2959251,0.195096 -0.443746,0.2993367 -0.1168375,0.082363 -0.2738282,0.1264809 -0.4158939,0.1330364 -0.1095198,-7.854e-4 -0.2296198,-0.018895 -0.3099771,-0.100647 -0.036251,-0.036838 -0.067832,-0.099049 -0.040874,-0.1502075 0.036421,-0.069246 0.080623,-0.00795 0.082215,0.041707 0.078868,-0.022442 0.069157,-0.1141984 0.021179,-0.1649374 -0.056184,-0.059448 -0.1435699,-0.0772 -0.2221074,-0.065898 -0.2114963,0.030391 -0.3286353,0.2008638 -0.4939979,0.3127239 -0.1338811,0.090594 -0.3092038,0.1292634 -0.4688722,0.127421 -0.1018132,-0.00129 -0.3993011,-0.1083229 -0.2952272,-0.2590332 0.044962,-0.065059 0.076939,0.01331 0.069153,0.058105 0.080714,-0.027546 0.084235,-0.1155474 0.029561,-0.1733196 -0.043743,-0.046257 -0.1074364,-0.067823 -0.1704713,-0.069255 z"
         style="fill:#f5f5f5;fill-opacity:1;stroke-width:0.01041667" />
    </g>
  </g>
</svg>
