<?xml version="1.0" encoding="UTF-8" standalone="no"?>
<!-- Created with Inkscape (http://www.inkscape.org/) -->

<svg
   xmlns:dc="http://purl.org/dc/elements/1.1/"
   xmlns:cc="http://creativecommons.org/ns#"
   xmlns:rdf="http://www.w3.org/1999/02/22-rdf-syntax-ns#"
   xmlns:svg="http://www.w3.org/2000/svg"
   xmlns="http://www.w3.org/2000/svg"
   xmlns:sodipodi="http://sodipodi.sourceforge.net/DTD/sodipodi-0.dtd"
   xmlns:inkscape="http://www.inkscape.org/namespaces/inkscape"
   width="36.266499mm"
   height="33.80455mm"
   viewBox="0 0 36.266499 33.80455"
   version="1.1"
   id="svg400"
   inkscape:version="0.92.2 (5c3e80d, 2017-08-06)"
   sodipodi:docname="logomark_blue.svg">
  <defs
     id="defs394" />
  <sodipodi:namedview
     id="base"
     pagecolor="#ffffff"
     bordercolor="#666666"
     borderopacity="1.0"
     inkscape:pageopacity="0.0"
     inkscape:pageshadow="2"
     inkscape:zoom="0.98994949"
     inkscape:cx="-110.87222"
     inkscape:cy="56.778949"
     inkscape:document-units="mm"
     inkscape:current-layer="layer1"
     showgrid="false"
     inkscape:pagecheckerboard="true"
     inkscape:window-width="2560"
     inkscape:window-height="1376"
     inkscape:window-x="1920"
     inkscape:window-y="27"
     inkscape:window-maximized="1" />
  <metadata
     id="metadata397">
    <rdf:RDF>
      <cc:Work
         rdf:about="">
        <dc:format>image/svg+xml</dc:format>
        <dc:type
           rdf:resource="http://purl.org/dc/dcmitype/StillImage" />
        <dc:title></dc:title>
      </cc:Work>
    </rdf:RDF>
  </metadata>
  <g
     inkscape:label="Layer 1"
     inkscape:groupmode="layer"
     id="layer1"
     transform="translate(-116.87444,-130.05155)">
    <g
       style="enable-background:new"
       transform="matrix(37.631201,0,0,37.631201,-757.50252,277.50045)"
       id="g323393">
      <ellipse
         ry="0.39421421"
         rx="0.39053139"
         cy="-3.4202194"
         cx="23.786825"
         id="ellipse323389"
         style="opacity:1;fill:#0093d9;fill-opacity:1;stroke:#000000;stroke-width:0.01011785;stroke-linecap:square;stroke-linejoin:miter;stroke-miterlimit:4;stroke-dasharray:none;stroke-dashoffset:5.99999952;stroke-opacity:1" />
      <path
         inkscape:label="Logomark"
         style="fill:#000000;fill-rule:nonzero;stroke:none;stroke-width:0.00527316px;stroke-linecap:butt;stroke-linejoin:miter;stroke-opacity:1"
         d="m 23.961533,-3.9182574 c -0.01519,-1.156e-4 -0.03055,0.00199 -0.04563,0.00659 -0.03001,0.00955 -0.01625,0.054549 0.01398,0.045707 0.0012,-3.925e-4 0.0026,-7.041e-4 0.0039,-0.00106 0.002,0.01099 0.01162,0.019392 0.02317,0.019392 0.0069,6e-7 0.01314,-0.00311 0.01746,-0.00787 0.0037,0.00824 0.01195,0.014023 0.02152,0.014023 0.0052,5e-7 0.0099,-0.0017 0.01382,-0.00458 0.0022,0.010767 0.01173,0.018922 0.02311,0.018922 0.0042,6e-7 0.0082,-0.00123 0.01163,-0.00323 0.01495,0.019069 0.02318,0.042785 0.02321,0.065672 0,0.012979 -0.0026,0.025828 -0.0072,0.037797 -0.07085,-0.061752 -0.16338,-0.099261 -0.264655,-0.09926 -0.123182,-6e-7 -0.233464,0.055429 -0.307443,0.1425925 -0.01574,-0.01417 -0.03598,-0.028773 -0.06178,-0.040678 -0.02934,-0.013554 -0.05675,-0.01945 -0.07955,-0.021668 v -8.801e-4 c -3.51e-4,2.17e-5 -7.04e-4,2.17e-5 -0.0011,0 v -0.00106 c -3.78e-4,-3.098e-4 -7.63e-4,-6.454e-4 -0.0011,-9.975e-4 v -0.00106 -9.974e-4 c -3.77e-4,-3.069e-4 -7.62e-4,-6.454e-4 -0.0011,-9.975e-4 v -9.974e-4 -0.00106 c 3.5e-4,-2.17e-5 7.04e-4,-2.17e-5 0.0011,0 v -9.974e-4 -0.00106 -9.975e-4 c 3.51e-4,-2.17e-5 7.05e-4,-2.17e-5 0.0011,0 v -9.974e-4 c 3.22e-4,-3.714e-4 7.04e-4,-7.041e-4 0.0011,-0.00106 3.5e-4,-2.17e-5 7.04e-4,-2.17e-5 0.0011,0 v -9.974e-4 c 3.5e-4,-2.17e-5 7.04e-4,-2.17e-5 0.0011,0 3.5e-4,-2.17e-5 7.04e-4,-2.17e-5 0.0011,0 3.18e-4,-3.714e-4 7.05e-4,-7.041e-4 0.0011,-0.00106 h 1.2e-4 c 3.5e-4,-2.17e-5 7.04e-4,-2.17e-5 0.0011,0 3.51e-4,-2.17e-5 7.04e-4,-2.17e-5 0.0011,0 3.51e-4,-2.17e-5 7.05e-4,-2.17e-5 0.0011,0 3.49e-4,-2.17e-5 7.04e-4,-2.17e-5 0.0011,0 0.02131,0.00499 0.04224,0.010661 0.06258,0.018465 0.0095,0.00364 0.01853,0.00776 0.02729,0.012116 0.01795,-0.026773 0.0369,-0.046006 0.03498,-0.050811 -0.0027,-0.00674 -0.04653,0.014627 -0.106167,0.00762 -0.05219,-0.00614 -0.116485,-0.034007 -0.134391,-0.03467 v -5.46e-5 c -0.0026,-9.45e-5 -0.0042,3.673e-4 -0.0047,0.00153 -0.0039,0.00928 0.06361,0.063227 0.104222,0.1149649 0.04061,0.051738 0.05425,0.1012405 0.0609,0.098705 0.0063,-0.00241 0.0064,-0.051932 0.02276,-0.095254 -0.0071,-0.00493 -0.01429,-0.0093 -0.02155,-0.012175 -0.01381,-0.00552 -0.02936,-0.00659 -0.04616,-0.00821 -3.51e-4,2.11e-5 -7.05e-4,2.11e-5 -0.0011,0 -3.49e-4,2.11e-5 -7.04e-4,2.11e-5 -0.0011,0 v -9.975e-4 c -3.5e-4,2.11e-5 -7.04e-4,2.11e-5 -0.0011,0 -3.5e-4,2.11e-5 -7.04e-4,2.11e-5 -0.0011,0 v -9.974e-4 c -3.51e-4,2.11e-5 -7.04e-4,2.11e-5 -0.0011,0 -3.78e-4,-3.075e-4 -7.63e-4,-6.454e-4 -0.0011,-9.975e-4 v -9.974e-4 c -3.51e-4,2.11e-5 -7.04e-4,2.11e-5 -0.0011,0 v -0.00106 -9.975e-4 c -3.77e-4,-3.104e-4 -7.63e-4,-6.454e-4 -0.0011,-0.00106 v -9.975e-4 -9.974e-4 -9.975e-4 c 3.23e-4,-3.72e-4 7.04e-4,-7.041e-4 0.0011,-0.00106 v -9.974e-4 c 3.23e-4,-3.72e-4 7.04e-4,-7.628e-4 0.0011,-0.00106 v -9.974e-4 c 3.5e-4,-2.23e-5 7.04e-4,-2.23e-5 0.0011,0 -5e-6,-1.461e-4 -5e-6,-2.922e-4 0,-4.389e-4 0.01966,0.00241 0.04274,0.00783 0.06736,0.019198 0.02404,0.011101 0.04279,0.024743 0.05722,0.037874 -0.05143,0.067675 -0.08202,0.1520223 -0.08202,0.2434661 0,0.2224059 0.180657,0.4030669 0.403171,0.4030663 0.222514,6e-7 0.403171,-0.1806604 0.40317,-0.4030663 0,-0.1023131 -0.0383,-0.1957317 -0.101252,-0.2668522 0.01212,-0.02293 0.01881,-0.048822 0.01848,-0.075105 -5.78e-4,-0.046428 -0.0234,-0.094074 -0.06357,-0.1234795 -0.02532,-0.018535 -0.05768,-0.029513 -0.0911,-0.029765 z M 23.7958,-3.798388 c 0.0967,0 0.184709,0.036378 0.251191,0.096183 -0.0062,0.00858 -0.01371,0.016176 -0.02213,0.022337 -0.02591,0.01894 -0.06148,0.02496 -0.09217,0.015009 -0.0148,-0.00475 -0.02895,-0.013043 -0.04425,-0.024003 -0.01469,-0.01052 -0.03,-0.02337 -0.04755,-0.036207 -0.01546,-0.012175 -0.03554,-0.026561 -0.05944,-0.036219 -0.02168,-0.00874 -0.05082,-0.015167 -0.08192,-0.0087 -0.02652,0.00534 -0.05231,0.019533 -0.07274,0.041124 -0.01847,0.019468 -0.03222,0.044351 -0.03976,0.072135 -0.0071,0.032499 -0.0052,0.065385 0.0023,0.096322 0.0043,0.018025 0.01022,0.035392 0.01684,0.051668 0.01756,0.043354 0.03934,0.079827 0.05434,0.1120271 0.0157,0.03379 0.0229,0.059521 0.02029,0.079282 -7.04e-4,0.011741 -0.0036,0.02283 -0.008,0.032423 0.0085,-0.00282 0.0168,-0.00235 0.02427,-0.00164 0.0089,8.801e-4 0.01771,0.00293 0.02565,0.00718 0.01416,0.00759 0.02515,0.018224 0.03488,0.028715 0.01,0.010743 0.01911,0.021398 0.02872,0.027694 0.0048,0.00311 0.0095,0.00522 0.01436,0.00615 0.0048,9.388e-4 0.0095,4.448e-4 0.01334,-9.974e-4 0.0046,-0.00176 0.0092,-0.00589 0.01334,-0.011283 0.0042,-0.00546 0.0078,-0.012867 0.01231,-0.020512 0.0045,-0.00765 0.01034,-0.01539 0.01847,-0.022566 0.0083,-0.00733 0.01892,-0.013606 0.0318,-0.013331 0.01287,2.745e-4 0.02383,0.00681 0.03182,0.014357 0.0012,0.00106 0.0021,0.00223 0.0032,0.00334 -0.0019,-0.044475 -0.0131,-0.087606 -0.03217,-0.1260757 -0.0024,-0.00452 -0.0049,-0.00884 -0.0075,-0.013108 0.0051,-0.010796 0.008,-0.022765 0.008,-0.035386 0,-0.0461 -0.03801,-0.0841 -0.08412,-0.0841 -0.01043,0 -0.0204,0.00205 -0.02966,0.00557 l -2.79e-4,-2.352e-4 c 0.0014,-0.00534 0.0022,-0.01089 0.0022,-0.016622 0,-0.033239 -0.02501,-0.06052 -0.05728,-0.064165 0.0075,-0.00792 0.01214,-0.018547 0.01214,-0.030188 0,-0.00689 -0.0017,-0.013289 -0.0046,-0.018981 0.0048,-2.676e-4 0.0096,-0.00129 0.01414,-0.00305 0.0088,0.011142 0.02228,0.017649 0.0365,0.017672 0.0076,-2.17e-5 0.01509,-0.00188 0.0218,-0.00546 0.0054,0.012973 0.01808,0.021422 0.03213,0.021422 0.0043,-1.65e-5 0.0086,-8.215e-4 0.01268,-0.00241 0.0044,0.015026 0.0182,0.025359 0.03387,0.02537 0.01155,-1.12e-5 0.02238,-0.00569 0.02898,-0.015161 0.0018,5.252e-4 0.0035,0.00111 0.0053,0.00158 0.04832,0.012826 0.100681,0.00129 0.138418,-0.027999 0.0099,-0.00773 0.01886,-0.016739 0.02663,-0.026667 0.05554,0.065432 0.08907,0.1501553 0.08907,0.2428894 0,0.072948 -0.02077,0.14093 -0.05665,0.1984882 -0.0012,-0.00188 -0.0026,-0.00399 -0.0038,-0.00569 -0.0061,-0.00876 -0.01408,-0.016135 -0.02257,-0.020512 -0.0083,-0.00428 -0.01767,-0.00528 -0.02565,-0.00305 -0.0065,0.00182 -0.01329,0.00627 -0.01949,0.01231 -0.0063,0.0061 -0.01241,0.01353 -0.01949,0.021539 -0.0071,0.00803 -0.01557,0.016558 -0.02667,0.022566 -0.01132,0.00613 -0.02492,0.00919 -0.03899,0.0051 -0.01175,-0.0034 -0.02119,-0.010461 -0.0277,-0.018459 -0.0064,-0.00788 -0.01026,-0.016522 -0.01436,-0.023587 -0.004,-0.00702 -0.0079,-0.013243 -0.01231,-0.017438 -0.0042,-0.00405 -0.0093,-0.00607 -0.01334,-0.00615 -0.004,-8.57e-5 -0.009,0.00229 -0.01334,0.00615 -0.0045,0.00399 -0.0092,0.00954 -0.01334,0.016411 -0.0041,0.00687 -0.0083,0.014651 -0.01436,0.022566 -0.0061,0.00799 -0.01447,0.016264 -0.02565,0.020512 -0.0094,0.00358 -0.01856,0.00387 -0.0277,0.00205 -0.0091,-0.00182 -0.01753,-0.00563 -0.02462,-0.010256 -0.01411,-0.00924 -0.02351,-0.021738 -0.03283,-0.031795 -0.0089,-0.00959 -0.01887,-0.017279 -0.02872,-0.022566 -0.0046,-0.00246 -0.01013,-0.00464 -0.01539,-0.0051 -0.0013,-1.261e-4 -0.0026,-1.983e-4 -0.0038,-2.247e-4 v 0 c -0.0037,-7.92e-5 -0.007,3.01e-4 -0.0095,0.00123 -0.0045,0.00164 -0.0089,0.00604 -0.01435,0.011283 -0.0042,0.00411 -0.0083,0.010145 -0.01334,0.017438 -0.0048,0.0069 -0.01046,0.014551 -0.01744,0.021539 -0.007,0.00705 -0.01569,0.013366 -0.02667,0.016411 -0.0093,0.00258 -0.01896,0.00205 -0.0277,0 -0.0087,-0.00199 -0.01666,-0.00481 -0.0236,-0.00923 -0.0138,-0.00882 -0.02322,-0.020207 -0.03283,-0.029742 -0.0093,-0.00921 -0.0188,-0.017496 -0.02872,-0.022566 -0.0029,-0.00147 -0.0057,-0.00235 -0.0082,-0.00305 -0.0053,-0.00147 -0.0097,-0.00317 -0.01334,-0.00305 -0.0033,6.86e-5 -0.0071,8.214e-4 -0.01026,0.00205 -0.0019,7.041e-4 -0.0038,0.0017 -0.0055,0.0027 -0.02534,-0.050483 -0.03968,-0.1074275 -0.03968,-0.1677943 0,-0.084025 0.02766,-0.1615121 0.07433,-0.2240006 0.0019,0.00223 0.0038,0.00446 0.0054,0.00655 0.01505,0.019151 0.03226,0.05192 0.0375,0.095425 0.0039,0.03257 5.04e-4,0.06693 -0.01164,0.098822 -0.0077,0.016534 -0.01787,0.033045 -0.02659,0.04935 -0.01027,0.019192 -0.01704,0.035274 -0.02016,0.049644 -7.04e-4,0.00323 -0.0016,0.00738 -0.0025,0.011535 -0.0029,0.013507 -0.0058,0.030252 -0.0064,0.049227 0.0014,-7.75e-5 0.0028,-1.409e-4 0.0042,-1.708e-4 0.0082,-1.625e-4 0.01541,0.00135 0.02156,0.00305 0.0049,0.00135 0.0094,0.00311 0.01334,0.00516 0.01418,0.00723 0.02597,0.017831 0.03591,0.027694 0.01025,0.010174 0.01895,0.01938 0.02872,0.025629 0.0049,0.00311 0.0094,0.00604 0.01436,0.00719 0.0049,0.00111 0.01015,1.297e-4 0.01435,-0.00106 0.0049,-0.00135 0.0097,-0.00458 0.01436,-0.00923 7.63e-4,-7.627e-4 0.0015,-0.0017 0.0022,-0.00252 -0.01165,-0.00452 -0.02787,-0.011177 -0.04359,-0.027436 -0.01934,-0.019984 -0.02784,-0.046821 -0.0266,-0.066269 2.13e-4,-0.0027 5.77e-4,-0.00522 0.0011,-0.0075 0.0033,-0.015513 0.0028,-0.015965 0.0092,-0.0416 0.0039,-0.01549 0.01012,-0.038466 0.01327,-0.0594 0.0089,-0.041494 0.0062,-0.082447 -0.0032,-0.1184477 -0.01272,-0.048241 -0.03572,-0.081618 -0.05224,-0.1026364 -0.0026,-0.00323 -0.0055,-0.00677 -0.0087,-0.010374 0.0691,-0.081979 0.17266,-0.1340567 0.288357,-0.1340561 z m -0.06668,0.078972 c 0.01244,6e-7 0.02258,0.010121 0.02258,0.022566 0,0.012439 -0.01014,0.022566 -0.02258,0.022566 -0.01245,-5e-7 -0.02356,-0.010121 -0.02356,-0.022566 0,-0.012439 0.01112,-0.022566 0.02356,-0.022566 z m 0.05328,0.013331 v 0 c 0.009,0 0.01723,0.00534 0.02116,0.012937 0.0015,0.00311 0.0022,0.00648 0.0022,0.0099 -4e-6,0.00176 -1.97e-4,0.0034 -5.78e-4,0.00516 -0.0027,0.00983 -0.01225,0.017168 -0.02281,0.017168 -0.01245,-1.1e-6 -0.02258,-0.010121 -0.02258,-0.022566 0,-0.012439 0.01014,-0.022566 0.02258,-0.022566 z m -0.0532,3.632e-4 c -0.0044,-2.4e-6 -0.008,0.00358 -0.008,0.00798 -1e-6,0.0044 0.0036,0.00798 0.008,0.00798 0.0044,2.3e-6 0.008,-0.00358 0.008,-0.00798 2e-6,-0.0044 -0.0036,-0.00798 -0.008,-0.00798 z m 0.05319,0.01451 c -0.0044,-2.3e-6 -0.008,0.00358 -0.008,0.00797 -1e-6,0.0044 0.0036,0.00798 0.008,0.00798 0.0044,2.3e-6 0.008,-0.00358 0.008,-0.00798 -5e-6,-0.0044 -0.0036,-0.00797 -0.008,-0.00797 z m 0.05336,0.015895 v 0 c 0.01084,-1.2e-6 0.02051,0.00967 0.02051,0.020512 0,0.010843 -0.0097,0.019485 -0.02051,0.019485 -0.0026,6e-7 -0.0052,-5.251e-4 -0.0074,-0.00147 -2.46e-4,-1.127e-4 -4.82e-4,-2.3e-4 -7.63e-4,-3.526e-4 -6.45e-4,-2.875e-4 -0.0012,-6.454e-4 -0.0018,-9.975e-4 -7.63e-4,-4.5e-4 -0.0014,-9.388e-4 -0.0021,-0.00147 -2.35e-4,-1.86e-4 -4.71e-4,-3.667e-4 -7.04e-4,-5.774e-4 -6.46e-4,-5.779e-4 -0.0012,-0.00117 -0.0018,-0.00182 -3.78e-4,-4.312e-4 -7.63e-4,-8.801e-4 -0.0011,-0.00129 -2.36e-4,-2.992e-4 -4.65e-4,-6.454e-4 -7.04e-4,-8.801e-4 -0.0019,-0.00305 -0.0031,-0.00665 -0.0031,-0.010579 0,-0.010843 0.0086,-0.020518 0.01949,-0.020512 z m 6.45e-4,0.012145 c -0.0042,6e-7 -0.0077,0.00346 -0.0077,0.00773 0,0.00422 0.0035,0.00773 0.0077,0.00773 0.0043,-5e-7 0.0077,-0.00346 0.0077,-0.00773 0,-0.00422 -0.0035,-0.00773 -0.0077,-0.00773 z m -0.144124,0.00428 c 0.01495,-6e-7 0.02767,0.011717 0.02767,0.026667 0,0.01495 -0.01272,0.027694 -0.02767,0.027688 -0.01495,6e-7 -0.02666,-0.012738 -0.02666,-0.027688 0,-0.01495 0.01171,-0.026667 0.02666,-0.026667 z m 0.190759,0.00735 c 0.01003,-1.2e-6 0.01742,0.00869 0.01742,0.018465 0,0.00977 -0.0074,0.018465 -0.01742,0.018465 -0.01004,6e-7 -0.01849,-0.00869 -0.01849,-0.018465 0,-0.00977 0.0085,-0.018465 0.01849,-0.018465 z m -0.191005,0.00918 c -0.0058,-1.2e-6 -0.01041,0.00469 -0.01041,0.010397 0,0.00575 0.0047,0.010385 0.01041,0.010379 0.0057,1.2e-6 0.01039,-0.00469 0.0104,-0.010379 0,-0.00575 -0.0047,-0.010397 -0.0104,-0.010397 z m 0.189841,0.00241 c -0.004,-3.5e-6 -0.0073,0.00329 -0.0073,0.0073 4e-6,0.00405 0.0032,0.00729 0.0073,0.00729 0.004,0 0.0073,-0.00323 0.0073,-0.00729 2e-6,-0.00405 -0.0032,-0.0073 -0.0073,-0.0073 z m -0.165007,0.062081 c 0.02184,-1.2e-6 0.04,0.018165 0.04,0.039998 0,0.021832 -0.01816,0.040004 -0.04,0.039998 -0.02184,1.8e-6 -0.04,-0.018165 -0.04,-0.039998 0,-0.021832 0.01816,-0.039998 0.04,-0.039998 z m 7.63e-4,0.024948 c -0.0087,-1.8e-6 -0.01571,0.00702 -0.01572,0.015707 -2e-6,0.00868 0.007,0.015719 0.01572,0.015719 0.0087,-3.5e-6 0.01571,-0.00704 0.01571,-0.015719 -5e-6,-0.00867 -0.007,-0.015701 -0.01571,-0.015707 z m 0.350969,0.014821 c -0.0074,-3.433e-4 -0.01979,5.175e-4 -0.03253,0.00764 -0.01495,0.00836 -0.02265,0.020876 -0.02615,0.029061 -0.0079,0.019257 0.02067,0.031472 0.02919,0.012497 0.0016,-0.00381 0.0053,-0.00987 0.01245,-0.013847 0.006,-0.00334 0.01199,-0.00381 0.01555,-0.00364 8.22e-4,3.87e-5 0.0018,2.347e-4 0.0028,5.779e-4 0.0068,0.00199 0.01491,0.00986 0.01625,0.020841 8.22e-4,0.00575 -6.5e-5,0.012181 -0.0023,0.018206 -0.0012,-1.755e-4 -0.0025,-2.987e-4 -0.0038,-2.987e-4 -0.016,0 -0.02875,0.013747 -0.02875,0.029742 0,0.00469 0.0012,0.00899 0.0032,0.012879 -5.25e-4,5.082e-4 -0.0011,9.975e-4 -0.0016,0.00153 -0.0028,-7.041e-4 -0.0057,-0.00106 -0.0087,-0.00106 -0.02077,0 -0.03796,0.01718 -0.03796,0.03795 0,9.974e-4 7.1e-5,0.00199 1.48e-4,0.00299 -0.0042,0.00393 -0.0084,0.00803 -0.01252,0.012374 -0.02924,2.69e-5 -0.05329,0.024091 -0.05329,0.053334 0,0.00941 0.0025,0.018253 0.0069,0.025963 -0.0041,0.011541 -0.0071,0.022525 -0.0092,0.032423 -4.75e-4,0.00235 -7.62e-4,0.00493 -9.97e-4,0.0077 7.63e-4,0.00123 0.0015,0.00241 0.0022,0.00358 0.0043,0.00752 0.0081,0.014287 0.01232,0.019486 0.0042,0.00505 0.0089,0.00897 0.01334,0.010256 0.0053,0.00153 0.0121,3.679e-4 0.01847,-0.00305 0.0066,-0.00358 0.01327,-0.010391 0.01949,-0.017438 0.0062,-0.00706 0.01237,-0.014633 0.02051,-0.022566 0.0082,-0.00799 0.01897,-0.015924 0.0318,-0.019486 0.008,-0.00223 0.01591,-0.0027 0.02355,-0.0017 0.0018,-0.0037 0.0039,-0.00741 0.0061,-0.011142 0.0074,-0.014586 0.02267,-0.034881 0.03981,-0.063663 0.01522,-0.025435 0.03097,-0.059731 0.02912,-0.097626 -0.0029,-0.022413 -0.01215,-0.042462 -0.02577,-0.057166 -0.0173,-0.018805 -0.03836,-0.02486 -0.05343,-0.026086 -0.0022,-1.103e-4 -0.0042,-1.725e-4 -0.006,-2.564e-4 z m -0.253285,0.040232 c 0.02818,-6e-7 0.05131,0.023112 0.05131,0.051281 0,0.028169 -0.02314,0.051281 -0.05131,0.051281 -0.02818,1.2e-6 -0.0513,-0.023111 -0.0513,-0.051281 0,-0.028175 0.02311,-0.051281 0.0513,-0.051281 z m 9.97e-4,0.032458 c -0.01108,0 -0.02007,0.00898 -0.02007,0.020066 0,0.011078 0.009,0.020066 0.02007,0.020066 0.01109,6e-7 0.02007,-0.00898 0.02007,-0.020066 0,-0.011078 -0.009,-0.020066 -0.02007,-0.020066 z m 0.263972,0.015149 h 6.6e-5 c 0.0012,1.2e-6 0.0025,1.866e-4 0.0037,5.779e-4 0.0012,3.697e-4 0.0023,8.801e-4 0.0033,0.00164 0.0034,0.00229 0.0055,0.00617 0.0055,0.010285 0,0.00688 -0.0056,0.012462 -0.01246,0.012468 -4.21e-4,0 -8.22e-4,-2.17e-5 -0.0012,-6.34e-5 -0.0033,-3.356e-4 -0.0064,-0.00199 -0.0085,-0.00469 -7.63e-4,-9.974e-4 -0.0014,-0.00205 -0.0018,-0.00323 -1.48e-4,-3.896e-4 -2.79e-4,-7.628e-4 -3.83e-4,-0.00123 -3.01e-4,-0.00111 -4.48e-4,-0.00223 -4.48e-4,-0.00334 -1e-6,-7.51e-5 -1e-6,-1.496e-4 0,-2.247e-4 0,-2.388e-4 5.4e-5,-4.799e-4 6.5e-5,-7.627e-4 0,1.05e-5 2e-6,2.75e-5 -5.5e-5,4.4e-5 3.34e-4,-0.00464 0.0032,-0.00865 0.0074,-0.010514 2.91e-4,-1.256e-4 5.78e-4,-2.394e-4 8.8e-4,-3.421e-4 1.92e-4,-6.51e-5 3.84e-4,-1.261e-4 5.78e-4,-1.813e-4 2.08e-4,-5.98e-5 4.22e-4,-1.126e-4 6.46e-4,-1.602e-4 1.58e-4,-4.46e-5 3.28e-4,-8.21e-5 4.93e-4,-1.179e-4 2.79e-4,-5.63e-5 5.77e-4,-1.021e-4 8.21e-4,-1.391e-4 1.36e-4,-1.64e-5 2.74e-4,-3.28e-5 4.05e-4,-4.34e-5 2.95e-4,-3.34e-5 5.78e-4,-5.45e-5 8.8e-4,-6.45e-5 7.1e-5,-3.5e-6 1.54e-4,-1.06e-5 2.25e-4,-1.06e-5 z m -2.57e-4,0.00778 c -0.0026,0 -0.0048,0.00217 -0.0048,0.00475 0,0.00264 0.0022,0.00475 0.0048,0.00475 0.0026,0 0.0048,-0.00217 0.0048,-0.00475 0,-0.00264 -0.0022,-0.00475 -0.0048,-0.00475 z m -0.03589,0.031795 c 0.01348,0 0.0246,0.01113 0.0246,0.024614 0,0.013483 -0.01111,0.024614 -0.0246,0.024614 -0.01348,0 -0.02462,-0.01113 -0.02462,-0.024614 0,-0.013483 0.01113,-0.024614 0.02462,-0.024614 z m 0,0.013331 c -0.0062,0 -0.01128,0.00505 -0.01128,0.011283 0,0.00623 0.005,0.011283 0.01128,0.011283 0.0062,0 0.01127,-0.00505 0.01127,-0.011283 0,-0.00623 -0.005,-0.011283 -0.01127,-0.011283 z m -0.05026,0.048206 c 0.01789,0 0.03283,0.013911 0.03283,0.031795 0,0.017878 -0.01495,0.032822 -0.03283,0.032822 -0.01788,0 -0.0318,-0.014938 -0.0318,-0.032822 0,-0.017878 0.01392,-0.031795 0.0318,-0.031795 z m 7.05e-4,0.016751 c -0.0081,0 -0.01472,0.00658 -0.01472,0.014704 0,0.00812 0.0066,0.014698 0.01472,0.014698 0.0081,0 0.01469,-0.00658 0.01469,-0.014698 0,-0.00812 -0.0066,-0.014704 -0.01469,-0.014704 z m -0.130052,0.164579 c 0.0014,-1.05e-5 0.0028,5.46e-5 0.0042,2.03e-4 h -5.78e-4 c 0.01505,0.00158 0.02465,0.011758 0.03182,0.021539 0.0069,0.00939 0.01269,0.019603 0.02051,0.027694 0.009,0.00767 0.01752,0.00768 0.0277,0.00305 0.01018,-0.00464 0.02016,-0.014692 0.0277,-0.023587 a 0.01111212,0.01110926 0 0 1 0.0011,-0.00106 0.01111212,0.01110926 0 0 1 0.0011,0 0.01111212,0.01110926 0 0 1 0.0011,-0.00106 0.01111212,0.01110926 0 0 1 0.0011,-9.974e-4 0.01111212,0.01110926 0 0 1 0.0031,-9.975e-4 0.01111212,0.01110926 0 0 1 0.0011,0 0.01111212,0.01110926 0 0 1 0.0011,0 0.01111212,0.01110926 0 0 1 0.0011,0 0.01111212,0.01110926 0 0 1 0.0011,0 0.01111212,0.01110926 0 0 1 0.0011,9.975e-4 0.01111212,0.01110926 0 0 1 0.0011,0 0.01111212,0.01110926 0 0 1 0.0011,0 0.01111212,0.01110926 0 0 1 0.0011,9.974e-4 0.01111212,0.01110926 0 0 1 0.0011,0.00106 0.01111212,0.01110926 0 0 1 0.0011,0.00106 0.01111212,0.01110926 0 0 1 0.0011,9.974e-4 0.01111212,0.01110926 0 0 1 0,0.00106 0.01111212,0.01110926 0 0 1 0.0011,0.00106 0.01111212,0.01110926 0 0 1 0,9.975e-4 0.01111212,0.01110926 0 0 1 0,0.00106 0.01111212,0.01110926 0 0 1 0.0011,9.975e-4 0.01111212,0.01110926 0 0 1 0,0.00106 0.01111212,0.01110926 0 0 1 0,0.00106 0.01111212,0.01110926 0 0 1 -0.0011,9.975e-4 0.01111212,0.01110926 0 0 1 0,9.974e-4 0.01111212,0.01110926 0 0 1 0,9.975e-4 0.01111212,0.01110926 0 0 1 -0.0011,0.00106 0.01111212,0.01110926 0 0 1 0,0.00106 0.01111212,0.01110926 0 0 1 -0.0011,9.975e-4 c -0.009,0.010579 -0.02187,0.021903 -0.03693,0.028715 -0.01506,0.00681 -0.0347,0.00809 -0.05025,-0.0051 v -9.975e-4 c -0.01101,-0.010919 -0.01761,-0.022613 -0.02359,-0.030768 -0.006,-0.00816 -0.0095,-0.011582 -0.01641,-0.01231 -0.0055,-5.826e-4 -0.01072,5.621e-4 -0.01641,0.00411 -0.0057,0.00352 -0.01206,0.00995 -0.01848,0.016411 -0.01282,0.012932 -0.02622,0.028967 -0.04718,0.033843 -0.01257,0.00252 -0.02422,-0.00106 -0.03283,-0.00718 -0.0086,-0.00612 -0.01577,-0.013988 -0.02156,-0.021539 -0.0058,-0.00755 -0.0105,-0.014927 -0.01539,-0.019485 -0.0049,-0.00458 -0.0089,-0.00632 -0.01334,-0.00615 -0.0041,1.508e-4 -0.0063,0.00235 -0.01026,0.00615 -0.0039,0.00381 -0.0087,0.00975 -0.01334,0.016411 -0.0047,0.00667 -0.01038,0.014258 -0.01743,0.020512 -0.007,0.00625 -0.01642,0.010503 -0.0277,0.011283 -0.0055,2.353e-4 -0.01084,-5.245e-4 -0.01579,-0.00199 -0.0038,-0.00199 -0.0073,-0.00411 -0.01096,-0.00626 a 0.01111212,0.01110926 0 0 1 0,-9.388e-4 0.01111212,0.01110926 0 0 1 -0.0011,0 0.01111212,0.01110926 0 0 1 -0.0011,-0.00106 0.01111212,0.01110926 0 0 1 0,-0.00106 0.01111212,0.01110926 0 0 1 0,-0.00305 0.01111212,0.01110926 0 0 1 0,-0.00106 0.01111212,0.01110926 0 0 1 0,-9.974e-4 0.01111212,0.01110926 0 0 1 0,-9.975e-4 0.01111212,0.01110926 0 0 1 0,-0.00106 0.01111212,0.01110926 0 0 1 0,-9.975e-4 0.01111212,0.01110926 0 0 1 0.0011,-0.00106 0.01111212,0.01110926 0 0 1 0,-0.00106 0.01111212,0.01110926 0 0 1 0.0011,-9.975e-4 0.01111212,0.01110926 0 0 1 0.0011,0 0.01111212,0.01110926 0 0 1 0,-0.00106 0.01111212,0.01110926 0 0 1 0.0011,-9.974e-4 0.01111212,0.01110926 0 0 1 0.0011,0 0.01111212,0.01110926 0 0 1 0.0011,-0.00106 0.01111212,0.01110926 0 0 1 0.0011,0 0.01111212,0.01110926 0 0 1 0.0011,0 0.01111212,0.01110926 0 0 1 0.0011,-0.00106 0.01111212,0.01110926 0 0 1 0.0031,0 0.01111212,0.01110926 0 0 1 0.0011,0.00106 0.01111212,0.01110926 0 0 1 0.0011,0 0.01111212,0.01110926 0 0 1 0.0011,0 0.01111212,0.01110926 0 0 1 0.0011,0.00106 c 0.0039,0.00211 0.0076,0.00323 0.01128,0.00305 0.0058,-4.031e-4 0.0098,-0.00317 0.01436,-0.00718 0.0045,-0.00399 0.0088,-0.0099 0.01334,-0.016411 0.0046,-0.00651 0.01007,-0.013372 0.01641,-0.019486 0.0063,-0.00611 0.0141,-0.010896 0.02461,-0.011283 0.01175,-4.318e-4 0.02247,0.00452 0.02975,0.011283 0.0073,0.00677 0.01294,0.015349 0.01847,0.022566 0.0055,0.00721 0.01035,0.013841 0.01539,0.017438 0.005,0.00358 0.0088,0.0044 0.01539,0.00305 0.011,-0.00258 0.02348,-0.015161 0.03693,-0.028715 0.0067,-0.00678 0.0141,-0.013196 0.02257,-0.018459 0.0074,-0.00464 0.016,-0.00834 0.02558,-0.00841 z"
         id="path323391"
         inkscape:connector-curvature="0" />
    </g>
  </g>
</svg>
